<?xml version="1.0" encoding="UTF-8" standalone="no"?> <!-- Created with Vectornator for iOS (http://vectornator.io/) --><!DOCTYPE svg PUBLIC "-//W3C//DTD SVG 1.1//EN" "http://www.w3.org/Graphics/SVG/1.1/DTD/svg11.dtd">
<svg height="100%" style="fill-rule:nonzero;clip-rule:evenodd;stroke-linecap:round;stroke-linejoin:round;" xmlns:xlink="http://www.w3.org/1999/xlink" xmlns="http://www.w3.org/2000/svg" xml:space="preserve" width="100%" xmlns:vectornator="http://vectornator.io" version="1.1" viewBox="0 0 96 96">
<metadata>
<vectornator:setting key="DimensionsVisible" value="1"/>
<vectornator:setting key="PencilOnly" value="0"/>
<vectornator:setting key="SnapToPoints" value="0"/>
<vectornator:setting key="OutlineMode" value="0"/>
<vectornator:setting key="CMYKEnabledKey" value="0"/>
<vectornator:setting key="RulersVisible" value="1"/>
<vectornator:setting key="SnapToEdges" value="0"/>
<vectornator:setting key="GuidesVisible" value="1"/>
<vectornator:setting key="DisplayWhiteBackground" value="0"/>
<vectornator:setting key="doHistoryDisabled" value="0"/>
<vectornator:setting key="SnapToGuides" value="1"/>
<vectornator:setting key="TimeLapseWatermarkDisabled" value="0"/>
<vectornator:setting key="Units" value="Points"/>
<vectornator:setting key="DynamicGuides" value="0"/>
<vectornator:setting key="IsolateActiveLayer" value="0"/>
<vectornator:setting key="SnapToGrid" value="0"/>
</metadata>
<defs>
<path d="M60.3171+11.831C56.6183+10.6266+52.6682+9.97491+48.5674+9.97491L48.5674+9.97491L48.5674+9.97491L48.5674+9.97491C44.8923+9.97491+41.3397+10.4979+37.9792+11.4735C37.9371+11.4856+37.8948+11.4981+37.8527+11.5104C37.8411+11.5137+37.8309+11.5168+37.8192+11.5202C37.8121+11.5223+37.8038+11.5248+37.7969+11.5268C37.7886+11.5293+37.7817+11.5314+37.7736+11.5337C37.7629+11.5369+37.7513+11.5404+37.7409+11.5435C37.7396+11.5439+37.7386+11.5441+37.7373+11.5446C37.459+11.6275+37.1829+11.7129+36.9073+11.8021C36.2489+10.7645+35.7095+9.73824+35.3281+8.71653C39.4828+7.31293+43.9352+6.55165+48.5676+6.55145C52.8255+6.55165+56.93+7.19439+60.7924+8.3886C60.6053+9.3876+60.4347+10.5414+60.3171+11.831" id="Mask"/>
<radialGradient cx="0" r="1" id="RadialGradient" gradientUnits="userSpaceOnUse" gradientTransform="matrix(280.942 0 0 280.942 -111.28 791.594)" cy="0">
<stop stop-color="#f9b116" offset="0"/>
<stop stop-color="#f9b116" offset="0.851648"/>
<stop stop-color="#543c17" offset="1"/>
</radialGradient>
<path d="M85.6064+39.7738C83.8735+31.821+79.645+24.8022+73.7819+19.5761C74.343+18.4836+74.9542+17.4988+75.6413+16.6527C76.3822+17.2954+77.1001+17.964+77.7939+18.6571C83.1468+24.0136+87.0356+30.8197+88.8159+38.441C87.8596+38.7854+86.7781+39.2225+85.6064+39.7738" id="Mask_2"/>
<radialGradient cx="0" r="1" id="RadialGradient_2" gradientUnits="userSpaceOnUse" gradientTransform="matrix(280.942 0 0 280.942 -111.28 791.594)" cy="0">
<stop stop-color="#f9b116" offset="0"/>
<stop stop-color="#f9b116" offset="0.851648"/>
<stop stop-color="#543c17" offset="1"/>
</radialGradient>
<path d="M77.0741+77.8124C76.293+77.1624+75.3695+76.4519+74.3017+75.7206C78.1848+72.1288+81.3159+67.7328+83.4293+62.7993C84.4499+60.4179+85.2335+57.9095+85.7502+55.3044C86.1546+55.2819+86.5515+55.2698+86.9406+55.2698C87.7319+55.2698+88.4899+55.3194+89.2122+55.4298C87.6659+63.8202+83.5874+71.3142+77.7939+77.1103C77.5566+77.3478+77.317+77.5811+77.0741+77.8124" id="Mask_3"/>
<radialGradient cx="0" r="1" id="RadialGradient_3" gradientUnits="userSpaceOnUse" gradientTransform="matrix(280.942 0 0 280.942 -111.28 791.594)" cy="0">
<stop stop-color="#f9b116" offset="0"/>
<stop stop-color="#f9b116" offset="0.851648"/>
<stop stop-color="#543c17" offset="1"/>
</radialGradient>
<path d="M48.5676+89.217C44.6163+89.217+40.7966+88.6628+37.1804+87.6294C37.3462+86.6273+37.4921+85.4689+37.5823+84.1772C41.0218+85.2168+44.6688+85.7814+48.4447+85.7939C48.4855+85.7939+48.5266+85.7939+48.5674+85.7939C48.6082+85.7939+48.6493+85.7939+48.6903+85.7939C52.9961+85.7794+57.1337+85.0481+60.988+83.7126C61.668+84.7356+62.2287+85.7502+62.6316+86.7627C58.2429+88.3503+53.5086+89.217+48.5676+89.217" id="Mask_4"/>
<radialGradient cx="0" r="1" id="RadialGradient_4" gradientUnits="userSpaceOnUse" gradientTransform="matrix(280.942 0 0 280.942 -111.28 791.594)" cy="0">
<stop stop-color="#f9b116" offset="0"/>
<stop stop-color="#f9b116" offset="0.851648"/>
<stop stop-color="#543c17" offset="1"/>
</radialGradient>
<path d="M22.1608+79.6833C21.1818+78.8687+20.2414+78.0103+19.3411+77.1103C13.9812+71.7476+10.089+64.9327+8.31143+57.3012C9.26834+56.9574+10.3498+56.5205+11.5224+55.9699C13.311+64.2035+17.774+71.4392+23.9575+76.7207C23.4198+77.8249+22.8298+78.8228+22.1608+79.6833" id="Mask_5"/>
<radialGradient cx="0" r="1" id="RadialGradient_5" gradientUnits="userSpaceOnUse" gradientTransform="matrix(280.942 0 0 280.942 -111.28 791.594)" cy="0">
<stop stop-color="#f9b116" offset="0"/>
<stop stop-color="#f9b116" offset="0.851648"/>
<stop stop-color="#543c17" offset="1"/>
</radialGradient>
<path d="M10.2113+40.473C9.41542+40.473+8.65269+40.423+7.92621+40.3113C9.47667+31.9331+13.5533+24.448+19.3411+18.6571C19.7839+18.2146+20.2368+17.7819+20.6991+17.3598C21.466+18.0263+22.3748+18.7567+23.4271+19.5101C17.3621+24.8878+13.0339+32.1793+11.3892+40.4392C10.9894+40.4613+10.5963+40.473+10.2113+40.473" id="Mask_6"/>
<radialGradient cx="0" r="1" id="RadialGradient_6" gradientUnits="userSpaceOnUse" gradientTransform="matrix(280.942 0 0 280.942 -111.28 791.594)" cy="0">
<stop stop-color="#f9b116" offset="0"/>
<stop stop-color="#f9b116" offset="0.851648"/>
<stop stop-color="#543c17" offset="1"/>
</radialGradient>
<path d="M23.4271+19.5101C22.3748+18.7567+21.466+18.0263+20.6991+17.3598C24.8819+13.5394+29.846+10.5687+35.3281+8.71653C35.7095+9.73824+36.2489+10.7645+36.9073+11.8021C31.8719+13.4282+27.2953+16.0802+23.4271+19.5101" id="Mask_7"/>
<radialGradient cx="0" r="1" id="RadialGradient_7" gradientUnits="userSpaceOnUse" gradientTransform="matrix(280.942 0 0 280.942 -111.28 791.594)" cy="0">
<stop stop-color="#ffffff" offset="0"/>
<stop stop-color="#ffffff" offset="0.851648"/>
<stop stop-color="#545557" offset="1"/>
</radialGradient>
<path d="M73.7819+19.5761C69.9201+16.1337+65.3506+13.4701+60.3171+11.831C60.4346+10.5414+60.6053+9.3876+60.7924+8.3886C66.3288+10.1001+71.3671+12.9448+75.6413+16.6527C74.9542+17.4988+74.343+18.4836+73.7819+19.5761" id="Mask_8"/>
<radialGradient cx="0" r="1" id="RadialGradient_8" gradientUnits="userSpaceOnUse" gradientTransform="matrix(280.942 0 0 280.942 -111.28 791.594)" cy="0">
<stop stop-color="#ffffff" offset="0"/>
<stop stop-color="#ffffff" offset="0.851648"/>
<stop stop-color="#545557" offset="1"/>
</radialGradient>
<path d="M89.2122+55.4298C88.4899+55.3194+87.7319+55.2698+86.9406+55.2698C86.5515+55.2698+86.1546+55.2819+85.7502+55.3044C86.2263+52.9051+86.4761+50.4238+86.4761+47.8845C86.4761+45.1013+86.1756+42.3864+85.6064+39.7738C86.7781+39.2225+87.8596+38.7854+88.8159+38.441C89.5243+41.473+89.8987+44.6338+89.8989+47.8841C89.8987+50.4617+89.663+52.9843+89.2122+55.4298" id="Mask_9"/>
<radialGradient cx="0" r="1" id="RadialGradient_9" gradientUnits="userSpaceOnUse" gradientTransform="matrix(280.942 0 0 280.942 -111.28 791.594)" cy="0">
<stop stop-color="#ffffff" offset="0"/>
<stop stop-color="#ffffff" offset="0.851648"/>
<stop stop-color="#545557" offset="1"/>
</radialGradient>
<path d="M62.6316+86.7627C62.2287+85.7502+61.668+84.7356+60.988+83.7126C65.9831+81.9813+70.502+79.2353+74.3017+75.7206C75.3695+76.4519+76.293+77.1624+77.0741+77.8124C72.9686+81.7229+68.0649+84.7981+62.6316+86.7627" id="Mask_10"/>
<radialGradient cx="0" r="1" id="RadialGradient_10" gradientUnits="userSpaceOnUse" gradientTransform="matrix(280.942 0 0 280.942 -111.28 791.594)" cy="0">
<stop stop-color="#ffffff" offset="0"/>
<stop stop-color="#ffffff" offset="0.851648"/>
<stop stop-color="#545557" offset="1"/>
</radialGradient>
<path d="M37.1804+87.6294C31.6019+86.0335+26.507+83.2959+22.1608+79.6833C22.8298+78.8228+23.4198+77.8249+23.9575+76.7207C27.8868+80.077+32.5099+82.6459+37.5823+84.1772C37.4921+85.4689+37.3463+86.6273+37.1804+87.6294" id="Mask_11"/>
<radialGradient cx="0" r="1" id="RadialGradient_11" gradientUnits="userSpaceOnUse" gradientTransform="matrix(280.942 0 0 280.942 -111.28 791.594)" cy="0">
<stop stop-color="#ffffff" offset="0"/>
<stop stop-color="#ffffff" offset="0.851648"/>
<stop stop-color="#545557" offset="1"/>
</radialGradient>
<path d="M8.31143+57.3012C7.60704+54.2769+7.23473+51.1247+7.23452+47.8841C7.23473+45.2967+7.47203+42.7656+7.92621+40.3113C8.65269+40.423+9.41542+40.473+10.2113+40.473C10.5963+40.473+10.9894+40.4613+11.3892+40.4392C10.9098+42.8464+10.6584+45.3365+10.6584+47.8845L10.6584+47.8845L10.6584+47.8845L10.6584+47.8845C10.6584+50.6588+10.9567+53.365+11.5224+55.9698C10.3498+56.5205+9.26834+56.9574+8.31143+57.3012" id="Mask_12"/>
<radialGradient cx="0" r="1" id="RadialGradient_12" gradientUnits="userSpaceOnUse" gradientTransform="matrix(280.942 0 0 280.942 -111.28 791.594)" cy="0">
<stop stop-color="#ffffff" offset="0"/>
<stop stop-color="#ffffff" offset="0.851648"/>
<stop stop-color="#545557" offset="1"/>
</radialGradient>
<path d="M48.5674+85.7939C48.5266+85.7939+48.4855+85.7939+48.4447+85.7939L48.5676+85.7939L48.5676+85.7939L48.5676+85.7939L48.6903+85.7939C48.6493+85.7939+48.6083+85.7939+48.5674+85.7939" id="Mask_13"/>
<radialGradient cx="0" r="1" id="RadialGradient_13" gradientUnits="userSpaceOnUse" gradientTransform="matrix(280.942 0 0 280.942 -111.28 791.594)" cy="0">
<stop stop-color="#f9b116" offset="0"/>
<stop stop-color="#f9b116" offset="0.851648"/>
<stop stop-color="#543c17" offset="1"/>
</radialGradient>
<path d="M74.3017+75.7206L74.3015+75.7206C78.1848+72.1288+81.3159+67.7328+83.4293+62.7993C81.3159+67.7328+78.1848+72.1288+74.3017+75.7206" id="Mask_14"/>
<radialGradient cx="0" r="1" id="RadialGradient_14" gradientUnits="userSpaceOnUse" gradientTransform="matrix(280.942 0 0 280.942 -111.28 791.594)" cy="0">
<stop stop-color="#f9b116" offset="0"/>
<stop stop-color="#f9b116" offset="0.851648"/>
<stop stop-color="#543c17" offset="1"/>
</radialGradient>
<path d="M48.6903+85.7939L48.5676+85.7939C52.9173+85.7939+57.097+85.0606+60.988+83.7126L60.988+83.7126C57.1337+85.0481+52.9961+85.7794+48.6903+85.7939" id="Mask_15"/>
<radialGradient cx="0" r="1" id="RadialGradient_15" gradientUnits="userSpaceOnUse" gradientTransform="matrix(280.942 0 0 280.942 -111.28 791.594)" cy="0">
<stop stop-color="#f9b116" offset="0"/>
<stop stop-color="#f9b116" offset="0.851648"/>
<stop stop-color="#543c17" offset="1"/>
</radialGradient>
<path d="M60.988+83.7126L60.988+83.7126C65.9831+81.9813+70.5018+79.2353+74.3015+75.7206L74.3017+75.7206C70.502+79.2353+65.9831+81.9813+60.988+83.7126" id="Mask_16"/>
<radialGradient cx="0" r="1" id="RadialGradient_16" gradientUnits="userSpaceOnUse" gradientTransform="matrix(280.942 0 0 280.942 -111.28 791.594)" cy="0">
<stop stop-color="#ffffff" offset="0"/>
<stop stop-color="#ffffff" offset="0.851648"/>
<stop stop-color="#545557" offset="1"/>
</radialGradient>
<path d="M48.5676+85.7939L48.4447+85.7939C44.6688+85.7814+41.0218+85.2168+37.5823+84.1772L37.5823+84.1772C41.0591+85.2293+44.7479+85.7939+48.5676+85.7939" id="Mask_17"/>
<radialGradient cx="0" r="1" id="RadialGradient_17" gradientUnits="userSpaceOnUse" gradientTransform="matrix(280.942 0 0 280.942 -111.28 791.594)" cy="0">
<stop stop-color="#f9b116" offset="0"/>
<stop stop-color="#f9b116" offset="0.851648"/>
<stop stop-color="#543c17" offset="1"/>
</radialGradient>
<path d="M23.9575+76.7207C17.774+71.4392+13.311+64.2035+11.5224+55.9698L11.5224+55.9698C13.311+64.2035+17.774+71.4392+23.9575+76.7207L23.9575+76.7207" id="Mask_18"/>
<radialGradient cx="0" r="1" id="RadialGradient_18" gradientUnits="userSpaceOnUse" gradientTransform="matrix(280.942 0 0 280.942 -111.28 791.594)" cy="0">
<stop stop-color="#f9b116" offset="0"/>
<stop stop-color="#f9b116" offset="0.851648"/>
<stop stop-color="#543c17" offset="1"/>
</radialGradient>
<path d="M37.5823+84.1772C32.5099+82.6459+27.8868+80.077+23.9575+76.7207L23.9575+76.7207C27.8868+80.077+32.5099+82.6438+37.5823+84.1772L37.5823+84.1772" id="Mask_19"/>
<radialGradient cx="0" r="1" id="RadialGradient_19" gradientUnits="userSpaceOnUse" gradientTransform="matrix(280.942 0 0 280.942 -111.28 791.594)" cy="0">
<stop stop-color="#ffffff" offset="0"/>
<stop stop-color="#ffffff" offset="0.851648"/>
<stop stop-color="#545557" offset="1"/>
</radialGradient>
<path d="M11.5224+55.9699C10.9567+53.365+10.6584+50.6588+10.6584+47.8845L10.6584+47.8845L10.6584+47.8845C10.6584+50.6586+10.9567+53.365+11.5224+55.9699L11.5224+55.9699" id="Mask_20"/>
<radialGradient cx="0" r="1" id="RadialGradient_20" gradientUnits="userSpaceOnUse" gradientTransform="matrix(280.942 0 0 280.942 -111.28 791.594)" cy="0">
<stop stop-color="#ffffff" offset="0"/>
<stop stop-color="#ffffff" offset="0.851648"/>
<stop stop-color="#545557" offset="1"/>
</radialGradient>
<path d="M37.7373+11.5446C37.7386+11.5441+37.7396+11.5439+37.7408+11.5435C37.7396+11.5439+37.7386+11.5441+37.7373+11.5446M37.7736+11.5337C37.7817+11.5314+37.7886+11.5293+37.7969+11.5268C37.7886+11.5293+37.7817+11.5314+37.7736+11.5337M37.8192+11.5202C37.8308+11.5168+37.8411+11.5137+37.8527+11.5104C37.8411+11.5137+37.8308+11.5168+37.8192+11.5202M37.9792+11.4735C41.3397+10.4979+44.8923+9.97491+48.5674+9.97491L48.5674+9.97491L48.5674+9.97491C44.8923+9.97491+41.3397+10.4979+37.9792+11.4735" id="Mask_21"/>
<radialGradient cx="0" r="1" id="RadialGradient_21" gradientUnits="userSpaceOnUse" gradientTransform="matrix(280.942 0 0 280.942 -111.28 791.594)" cy="0">
<stop stop-color="#f9b116" offset="0"/>
<stop stop-color="#f9b116" offset="0.851648"/>
<stop stop-color="#543c17" offset="1"/>
</radialGradient>
<path d="M48.476+47.9845C48.501+47.9564+48.5257+47.9291+48.551+47.902C48.5537+47.9027+48.5576+47.9037+48.5603+47.9043C48.5374+47.9272+48.5147+47.95+48.492+47.9727C48.4866+47.9766+48.4814+47.9806+48.476+47.9845M48.5472+47.8318C48.5424+47.8202+48.5374+47.8085+48.5324+47.7964C48.5318+47.7904+48.5312+47.7843+48.5303+47.7783C48.5362+47.7962+48.5418+47.8139+48.5472+47.8318" id="Mask_22"/>
<path d="M49.7566+47.9637C49.3083+47.9637+48.917+47.9291+48.5987+47.867C48.6416+47.8252+48.6849+47.7822+48.7283+47.7383C55.9629+42.5556+55.6187+35.9897+51.239+29.8903C46.9528+22.8967+40.328+17.1944+36.9073+11.8021C37.1829+11.7129+37.459+11.6275+37.7373+11.5446C37.7386+11.5441+37.7396+11.5439+37.7408+11.5435C37.7513+11.5404+37.7629+11.5369+37.7736+11.5337C37.7817+11.5314+37.7886+11.5294+37.7969+11.5269C37.8038+11.5248+37.8121+11.5223+37.8192+11.5202C37.8309+11.5169+37.8411+11.5137+37.8527+11.5104C37.8948+11.4981+37.9371+11.4856+37.9792+11.4735C41.3397+10.4979+44.8923+9.97491+48.5676+9.97491C52.6682+9.97491+56.6183+10.6266+60.3171+11.831C60.0407+14.8628+60.0559+18.6475+60.8324+22.9538C62.8581+34.1913+61.9466+41.6697+58.4033+44.6627C55.4705+47.1408+51.9411+47.9635+49.7566+47.9637M48.6324+47.8854C48.6191+47.882+48.606+47.8789+48.5928+47.8756C48.5926+47.8745+48.5926+47.8739+48.5924+47.8731C48.5939+47.8716+48.5951+47.8704+48.5966+47.8691C48.6087+47.8745+48.6203+47.8797+48.6324+47.8854" id="Mask_23"/>
<path d="M58.7721+55.1309C57.8852+55.1309+57.0681+55.0002+56.3241+54.7381C51.9517+53.1972+49.2201+49.6877+48.5955+47.8945C48.5945+47.8883+48.5937+47.8818+48.5928+47.8756C48.606+47.8789+48.6191+47.882+48.6324+47.8854C50.8833+48.906+52.9342+49.3746+54.7872+49.3748C59.6925+49.3752+63.2168+46.0932+65.4392+41.082C69.3001+33.8494+70.865+25.2553+73.7819+19.5761C79.645+24.8022+83.8735+31.821+85.6064+39.7738C82.8522+41.0699+79.5967+42.9981+76.2768+45.8461C71.9669+49.5433+68.0911+52.1432+64.7456+53.6335C64.1629+53.3981+63.6656+53.2941+63.362+53.2441C63.5654+53.432+63.7918+53.6637+64.0195+53.9429C62.073+54.734+60.3171+55.1309+58.7721+55.1309" id="Mask_24"/>
<path d="M74.3015+75.7206C71.7908+74.0018+68.4822+72.1726+64.3494+70.7517C62.7774+70.2121+61.3057+69.6558+59.9353+69.087C62.0199+66.6828+63.2506+63.8847+64.3781+61.3076C64.7662+60.4221+65.089+59.5867+65.3569+58.8262C72.7419+58.1054+79.9934+55.6271+85.7502+55.3044C85.2335+57.9095+84.4499+60.4179+83.4293+62.7993C81.3159+67.7328+78.1848+72.1288+74.3015+75.7206M48.142+61.3346C47.3195+60.2513+46.7972+59.1491+46.5819+58.0429C45.698+53.4906+47.3438+49.3569+48.5747+47.9116C48.547+47.9318+48.5193+47.9525+48.492+47.9727C48.5147+47.95+48.5374+47.9272+48.5603+47.9043C48.567+47.906+48.5733+47.9077+48.5801+47.9093L48.5801+47.9093L48.5801+47.9093C48.5776+47.9037+48.5753+47.8979+48.5728+47.892C48.5793+47.8858+48.586+47.8795+48.5924+47.8731C48.5926+47.8739+48.5926+47.8745+48.5928+47.8756C48.5937+47.8818+48.5945+47.8883+48.5955+47.8945C48.5951+47.8939+48.5949+47.8929+48.5945+47.8922C49.3043+54.7823+52.9467+58.1283+57.9873+58.9366C56.3304+59.4846+54.8247+59.8971+53.5128+60.2138C51.8844+60.6075+50.1075+61.0284+48.142+61.3346" id="Mask_25"/>
<path d="M48.5676+85.7939L48.5676+85.7939C44.7479+85.7939+41.0591+85.2293+37.5823+84.1772C37.7946+81.1417+37.6992+77.3582+36.8323+73.0684C36.5352+71.5996+36.2902+70.1954+36.0964+68.8537C38.9121+72.2017+42.6677+74.3518+46.6888+74.6935C47.0772+74.7268+47.4599+74.7435+47.8361+74.7435C49.5922+74.7435+51.2077+74.4039+52.6115+73.9268C55.7653+77.4165+58.9242+80.6062+60.988+83.7126C57.097+85.0606+52.9173+85.7939+48.5676+85.7939L48.5676+85.7939M42.5622+61.7826C41.4505+61.7826+40.2878+61.7263+39.0686+61.6034C37.7819+61.4721+36.6039+61.2784+35.5535+61.0638C35.6693+56.4026+36.771+53.1043+38.8009+51.3142C41.7614+48.7048+45.3867+47.8287+47.5538+47.8287C47.9336+47.8287+48.2687+47.8556+48.5476+47.9049L48.5476+47.9049L48.5476+47.9049C48.5405+47.9018+48.5341+47.8991+48.527+47.896C48.5351+47.8981+48.5428+47.8999+48.551+47.902C48.5257+47.9291+48.501+47.9564+48.476+47.9845C42.9189+52.1132+41.937+56.9782+43.8629+61.7576C43.4373+61.7722+43.0037+61.7826+42.5622+61.7826" id="Mask_26"/>
<path d="M23.9575+76.7207C17.774+71.4392+13.311+64.2035+11.5224+55.9698C14.2772+54.6758+17.5344+52.7497+20.8562+49.904C28.0501+43.7423+34.0332+40.6317+38.3605+40.6317C39.2496+40.6317+40.069+40.7632+40.8145+41.0263C45.1884+42.5706+47.918+46.0845+48.5408+47.8779L48.5408+47.8779L48.5408+47.8779C48.538+47.851+48.5351+47.8233+48.5324+47.7964C48.5374+47.8085+48.5424+47.8202+48.5472+47.8318C48.5541+47.8537+48.5608+47.8754+48.5674+47.8972C48.5693+47.8956+48.571+47.8939+48.5728+47.892C48.5753+47.8979+48.5776+47.9037+48.5801+47.9093C48.5733+47.9077+48.567+47.906+48.5603+47.9043C48.5576+47.9037+48.5537+47.9027+48.551+47.902C48.5428+47.8999+48.5351+47.8981+48.527+47.896C46.3407+46.9568+44.3502+46.5241+42.5522+46.5241C37.524+46.5241+33.9926+49.9054+31.8425+55.0429C28.1364+62.3555+26.7534+70.9809+23.9575+76.7207" id="Mask_27"/>
<path d="M48.5674+47.8972C48.5608+47.8754+48.5541+47.8537+48.5472+47.8318C48.5418+47.8139+48.5362+47.7962+48.5303+47.7783C47.6789+39.8207+42.885+36.626+36.5469+36.626C35.7752+36.626+34.9818+36.6733+34.1685+36.7651C25.9749+37.0904+17.7648+40.0865+11.3892+40.4392C13.0339+32.1793+17.3621+24.8878+23.4271+19.5101C25.9009+21.2812+29.1702+23.1811+33.2724+24.6892C43.9892+28.6292+49.9787+33.2002+50.7664+37.7702C51.555+42.341+49.8204+46.4388+48.5601+47.8574C48.6168+47.8177+48.6726+47.7781+48.7283+47.7383C48.6849+47.7822+48.6416+47.8252+48.5987+47.867C48.5947+47.8662+48.591+47.8654+48.5868+47.8645C48.5899+47.866+48.5937+47.8677+48.5966+47.8691C48.5951+47.8704+48.5939+47.8716+48.5924+47.8731C48.586+47.8795+48.5793+47.8858+48.5728+47.892C48.571+47.8939+48.5693+47.8956+48.5674+47.8972" id="Mask_28"/>
<path d="M48.5601+47.8574C49.8204+46.4388+51.555+42.341+50.7664+37.7702C49.9787+33.2002+43.9892+28.6292+33.2724+24.6892C29.1702+23.1811+25.9009+21.2812+23.4271+19.5101C27.2953+16.0802+31.8719+13.4282+36.9073+11.8021C40.328+17.1944+46.9528+22.8967+51.239+29.8903C55.6187+35.9897+55.9628+42.5556+48.7283+47.7383C48.6726+47.7781+48.6168+47.8177+48.5601+47.8574" id="Mask_29"/>
<path d="M54.7872+49.3748C52.9342+49.3746+50.8833+48.906+48.6324+47.8854C48.6203+47.8797+48.6087+47.8745+48.5966+47.8691C48.5937+47.8677+48.5899+47.866+48.5868+47.8645C48.591+47.8654+48.5947+47.8662+48.5987+47.867C48.917+47.9291+49.3083+47.9637+49.7566+47.9637C51.9411+47.9635+55.4705+47.1408+58.4033+44.6627C61.9466+41.6697+62.8581+34.1913+60.8324+22.9538C60.0559+18.6475+60.0407+14.8628+60.3171+11.831C65.3506+13.4701+69.9201+16.1337+73.7819+19.5761C70.865+25.2553+69.3001+33.8494+65.4392+41.082C63.2168+46.0932+59.6925+49.3752+54.7872+49.3748" id="Mask_30"/>
<path d="M57.9873+58.9366C52.9467+58.1283+49.3043+54.7823+48.5945+47.8922C48.5949+47.8929+48.5951+47.8939+48.5955+47.8945C49.2202+49.6877+51.9517+53.1972+56.3241+54.7381C57.0681+55.0002+57.8852+55.1309+58.7721+55.1309C60.3171+55.1309+62.073+54.734+64.0195+53.9429C64.2775+54.2589+64.5371+54.6358+64.7667+55.0788C64.9408+55.4148+65.0704+55.7361+65.1679+56.029C62.5801+57.2824+60.1544+58.2241+57.9873+58.9366M65.3569+58.8262C65.6577+57.9741+65.8894+57.2157+66.0673+56.5824C66.2936+56.6101+66.5417+56.6553+66.8053+56.7272C67.5086+56.9186+68.0557+57.2262+68.4405+57.4949C68.2453+56.943+67.7201+55.6961+66.4486+54.6465C65.8644+54.1644+65.2704+53.8456+64.7456+53.6335C68.0911+52.1432+71.9669+49.5433+76.2768+45.8461C79.5967+42.9981+82.8522+41.0699+85.6064+39.7738C86.1756+42.3864+86.4761+45.1013+86.4761+47.8845C86.4761+50.4238+86.2263+52.9051+85.7502+55.3044C79.9934+55.6271+72.7419+58.1054+65.3569+58.8262" id="Mask_31"/>
<path d="M60.988+83.7126C58.9242+80.6062+55.7653+77.4165+52.6115+73.9268C55.541+72.933+57.5464+71.3413+57.976+70.9913C58.7063+70.3954+59.354+69.7558+59.9353+69.087C61.3057+69.6558+62.7774+70.2121+64.3493+70.7517C68.4822+72.1726+71.7908+74.0018+74.3015+75.7206C70.5018+79.2353+65.9831+81.9813+60.988+83.7126M43.8629+61.7576C41.937+56.9782+42.9189+52.1132+48.476+47.9845C48.4814+47.9806+48.4866+47.9766+48.492+47.9727C48.5193+47.9524+48.547+47.9318+48.5747+47.9116C47.3438+49.3569+45.698+53.4906+46.5819+58.0428C46.7972+59.1491+47.3195+60.2513+48.142+61.3346C46.8069+61.543+45.3852+61.6992+43.8629+61.7576" id="Mask_32"/>
<path d="M37.5823+84.1772C32.5099+82.6438+27.8868+80.077+23.9575+76.7207C26.7534+70.9809+28.1364+62.3555+31.8425+55.0429C33.9926+49.9054+37.524+46.5241+42.5522+46.5241C44.3502+46.5241+46.3407+46.9568+48.527+47.896C48.5341+47.8991+48.5405+47.9018+48.5476+47.9049C48.2687+47.8556+47.9337+47.8287+47.5538+47.8287C45.3867+47.8287+41.7614+48.7048+38.8009+51.3143C36.771+53.1043+35.6693+56.4026+35.5535+61.0638C34.356+60.818+33.3241+60.5429+32.4855+60.2909C32.6565+59.9554+32.8924+59.5679+33.2176+59.17C33.8249+58.4262+34.4899+57.9637+34.971+57.6866C34.5476+57.7449+32.9728+58.0116+31.9117+59.3679C30.735+60.8721+30.6681+63.1055+31.7707+64.9702L31.7707+64.9702L31.7707+64.9702C31.6853+64.3973+31.6386+63.5972+31.8203+62.6743C31.905+62.243+32.0244+61.8638+32.1494+61.543C33.0147+64.3327+34.3812+66.8161+36.0964+68.8537C36.2902+70.1954+36.5352+71.5996+36.8323+73.0684C37.6992+77.3582+37.7946+81.1417+37.5823+84.1772" id="Mask_33"/>
<path d="M11.5224+55.9699C10.9567+53.365+10.6584+50.6586+10.6584+47.8843C10.6584+45.3365+10.9098+42.8464+11.3892+40.4392C17.7648+40.0865+25.9749+37.0904+34.1684+36.7651C34.9818+36.6733+35.7752+36.626+36.5469+36.626C42.885+36.626+47.6789+39.8207+48.5303+47.7783C48.5312+47.7843+48.5318+47.7904+48.5324+47.7964C48.5351+47.8233+48.538+47.851+48.5408+47.8779C47.918+46.0845+45.1884+42.5706+40.8145+41.0263C40.069+40.7632+39.2496+40.6317+38.3604+40.6317C34.0332+40.6317+28.0501+43.7423+20.8562+49.904C17.5344+52.7497+14.2772+54.6758+11.5224+55.9699" id="Mask_34"/>
</defs>
<g id="g10" vectornator:layerName="g10">
<g opacity="1">
<path d="M32.5836+6.62394C32.5836+6.62394+29.5356+8.40818+34.8885+14.8761C40.2407+21.3441+46.932+26.9939+50.2029+32.1239C53.4738+37.2535+50.8902+45.4496+48.5674+47.8845C49.8498+48.3118+50.8533+48.3493+50.8533+48.3493L55.1839+48.3493L60.2953+45.7286C60.2953+45.7286+63.4731+35.5809+63.3618+34.5771C63.2497+33.5735+63.436+32.1239+63.436+32.1239L61.8562+14.6161L63.0399+7.93795L60.9582+5.8562L46.5851+5.2616L32.5836+6.62394" opacity="1" fill="#f9b116"/>
<path d="M76.4685+13.7632C76.4685+13.7632+73.4182+11.9831+70.4093+19.8211C67.4007+27.6591+65.7611+36.2614+62.897+41.6287C60.033+46.9966+51.8413+48.7016+48.5801+47.8722C48.837+49.1996+49.0789+50.1586+49.0789+50.1586L51.2042+53.9314L55.996+57.0991C55.996+57.0991+66.3977+54.8877+67.2171+54.2977C68.0374+53.7081+69.3912+53.1587+69.3912+53.1587L83.8706+43.1904L90.2697+40.9445L91.0618+38.1089L84.5262+25.2938L76.4685+13.7632" opacity="1" fill="#f9b116"/>
<path d="M92.205+52.0943C92.205+52.0943+91.9735+48.57+83.7937+50.463C75.6147+52.3558+67.568+55.8107+61.517+56.4411C55.4651+57.0699+49.1006+51.602+48.5924+47.8722C47.6355+48.8277+46.7149+49.7625+46.7149+49.7625L44.7773+53.6343L44.834+59.3783C44.834+59.3783+52.4869+66.7619+53.4342+67.1099C54.3826+67.4599+55.5953+68.2745+55.5953+68.2745L71.9596+74.6956L77.4018+78.7437L80.1944+77.8124L87.1577+65.2244L92.205+52.0943" opacity="1" fill="#f9b116"/>
<path d="M69.2445+86.5877C69.2445+86.5877+72.0354+84.4231+65.8904+78.702C59.7444+72.983+52.3775+68.2474+48.4685+63.5868C44.5606+58.9241+46.029+50.5778+48.5674+47.8845C47.2403+47.6268+45.7203+47.5816+45.7203+47.5816L41.4268+48.1422L36.6994+51.4038C36.6994+51.4038+34.8626+61.8784+35.1037+62.8576C35.3441+63.8389+35.3479+65.3015+35.3479+65.3015L35.0372+82.4792L34.8381+88.5253L41.2097+91.0254L55.5383+89.7524L69.2445+86.5877" opacity="1" fill="#f9b116"/>
<path d="M27.8106+86.8607C27.8106+86.8607+31.1657+87.9628+32.4669+79.6687C33.7674+71.3746+33.5684+62.6201+35.2456+56.7707C36.9227+50.9224+41.1459+46.0265+48.5801+47.9093C48.0509+46.6649+47.0803+44.1671+47.0803+44.1671L44.1035+42.2926L38.7553+40.1988C38.7553+40.1988+28.231+41.2872+27.5533+42.0356C26.8749+42.7841+22.4979+43.6219+22.4979+43.6219L6.73722+53.4354L8.62436+63.1722L8.44268+66.1098L17.5163+77.2728L27.8106+86.8607" opacity="1" fill="#f9b116"/>
<path d="M4.39611+52.6745C4.39611+52.6745+5.3601+56.0717+12.963+52.5085C20.5641+48.9444+29.9956+41.5526+35.7806+39.6694C41.5666+37.7864+47.1549+43.2506+48.5674+47.8972C49.5337+46.968+50.6487+45.3938+50.6487+45.3938L52.2102+40.7474L51.6152+35.0603C51.6152+35.0603+43.1735+26.6164+42.1739+26.4735C41.1745+26.3301+36.9698+23.5+36.9698+23.5L21.9027+14.8761L13.2918+23.5169L10.7548+25.0107L6.58242+38.7773L4.39611+52.6745" opacity="1" fill="#f9b116"/>
<path d="M34.7928+6.71207C28.9281+8.67361+23.6186+11.846+19.1695+15.9437C21.4391+18.1896+26.074+22.0427+33.2724+24.6892C43.9892+28.6292+49.9787+33.2002+50.7664+37.7702C51.555+42.341+49.8204+46.4388+48.5601+47.8574C55.9681+42.6564+55.6522+36.0366+51.239+29.8903C45.5877+20.6689+35.871+13.6936+34.7928+6.71207" opacity="1" fill="#ffffff"/>
<path d="M77.107+15.1678C72.446+11.1014+67.0234+8.12797+61.2376+6.36394C60.449+9.45823+59.4713+15.4055+60.8324+22.9538C62.8581+34.1913+61.9466+41.6697+58.4033+44.6627C54.8609+47.6558+50.4489+48.2341+48.5868+47.8645C56.8216+51.6213+62.3716+47.9989+65.4392+41.082C70.5324+31.541+71.6304+19.6299+77.107+15.1678" opacity="1" fill="#ffffff"/>
<path d="M91.2283+55.9415C92.3769+49.8646+92.1968+43.6819+90.7906+37.7987C87.7221+38.6858+82.098+40.8524+76.2768+45.8461C67.6105+53.2804+60.6995+56.2786+56.3241+54.7381C51.9498+53.1966+49.2177+49.6846+48.5945+47.8922C49.522+56.8951+55.4551+59.8492+62.9739+58.995C73.779+58.5575+84.6085+53.4766+91.2283+55.9415" opacity="1" fill="#ffffff"/>
<path d="M63.2091+88.7566C69.0322+86.6731+74.2728+83.3876+78.6344+79.1978C76.3174+76.9998+71.6023+73.2455+64.3493+70.7517C53.5515+67.039+47.4674+62.5972+46.5819+58.0428C45.698+53.4906+47.3438+49.3569+48.5747+47.9116C41.2793+53.2685+41.7347+59.8804+46.2767+65.9327C52.1219+75.031+61.9845+81.8+63.2091+88.7566" opacity="1" fill="#ffffff"/>
<path d="M20.7272+81.1979C25.4711+85.1647+30.9567+88.0232+36.7779+89.6649C37.5006+86.5544+38.3519+80.5875+36.8323+73.0684C34.5695+61.8763+35.3229+54.3815+38.8009+51.3142C42.2804+48.2473+46.6784+47.5749+48.5476+47.9049C40.2357+44.3236+34.7639+48.0622+31.8425+55.0429C26.9534+64.6889+26.1072+76.6207+20.7272+81.1979" opacity="1" fill="#ffffff"/>
<path d="M5.91199+39.7988C4.75924+45.8742+4.93529+52.0572+6.33783+57.9408C9.40626+57.0574+15.0316+54.8938+20.8562+49.904C29.5285+42.476+36.441+39.4821+40.8145+41.0263C45.1884+42.5706+47.918+46.0845+48.5408+47.8779C47.6189+38.874+41.6881+35.9159+34.1685+36.7651C23.3633+37.1941+12.5303+42.2676+5.91199+39.7988" opacity="1" fill="#ffffff"/>
<g opacity="1" vectornator:mask="#Mask">
<clipPath id="ClipPath">
<use xlink:href="#Mask" fill="none" overflow="visible"/>
</clipPath>
<g clip-path="url(#ClipPath)">
<path d="M-35.2471+558.297C-59.1821+550.503-84.743+546.286-111.279+546.286L-111.279+546.286L-111.279+546.286L-111.279+546.286C-135.06+546.286-158.049+549.67-179.794+555.983C-180.067+556.061-180.34+556.142-180.613+556.222C-180.688+556.243-180.754+556.264-180.83+556.285C-180.875+556.299-180.929+556.315-180.974+556.328C-181.028+556.344-181.072+556.358-181.125+556.373C-181.194+556.393-181.269+556.416-181.336+556.436C-181.345+556.439-181.351+556.44-181.359+556.443C-183.161+556.979-184.947+557.532-186.73+558.109C-190.991+551.395-194.481+544.754-196.949+538.143C-170.065+529.061-141.253+524.135-111.277+524.133C-83.7251+524.135-57.1653+528.294-32.172+536.021C-33.3826+542.486-34.4867+549.952-35.2471+558.297" opacity="1" fill="url(#RadialGradient)"/>
</g>
</g>
<g opacity="1" vectornator:mask="#Mask_2">
<clipPath id="ClipPath_2">
<use xlink:href="#Mask_2" fill="none" overflow="visible"/>
</clipPath>
<g clip-path="url(#ClipPath_2)">
<path d="M128.398+739.11C117.184+687.649+89.8219+642.231+51.8823+608.414C55.5129+601.344+59.4684+594.972+63.9146+589.497C68.7086+593.656+73.3543+597.982+77.8436+602.467C112.482+637.128+137.646+681.17+149.166+730.486C142.978+732.715+135.98+735.543+128.398+739.11" opacity="1" fill="url(#RadialGradient_2)"/>
</g>
</g>
<g opacity="1" vectornator:mask="#Mask_3">
<clipPath id="ClipPath_3">
<use xlink:href="#Mask_3" fill="none" overflow="visible"/>
</clipPath>
<g clip-path="url(#ClipPath_3)">
<path d="M73.1858+985.252C68.1316+981.046+62.1552+976.449+55.246+971.717C80.3727+948.475+100.634+920.029+114.31+888.105C120.914+872.696+125.985+856.464+129.328+839.607C131.945+839.461+134.513+839.383+137.031+839.383C142.152+839.383+147.056+839.704+151.73+840.418C141.724+894.711+115.333+943.204+77.8436+980.709C76.3081+982.246+74.7577+983.756+73.1858+985.252" opacity="1" fill="url(#RadialGradient_3)"/>
</g>
</g>
<g opacity="1" vectornator:mask="#Mask_4">
<clipPath id="ClipPath_4">
<use xlink:href="#Mask_4" fill="none" overflow="visible"/>
</clipPath>
<g clip-path="url(#ClipPath_4)">
<path d="M-111.277+1059.05C-136.846+1059.05-161.563+1055.46-184.963+1048.78C-183.89+1042.29-182.946+1034.8-182.362+1026.44C-160.106+1033.17-136.507+1036.82-112.073+1036.9C-111.808+1036.9-111.543+1036.9-111.279+1036.9C-111.014+1036.9-110.749+1036.9-110.483+1036.9C-82.6211+1036.81-55.8469+1032.07-30.9061+1023.43C-26.5058+1030.05-22.8779+1036.62-20.2706+1043.17C-48.6693+1053.44-79.3046+1059.05-111.277+1059.05" opacity="1" fill="url(#RadialGradient_4)"/>
</g>
</g>
<g opacity="1" vectornator:mask="#Mask_5">
<clipPath id="ClipPath_5">
<use xlink:href="#Mask_5" fill="none" overflow="visible"/>
</clipPath>
<g clip-path="url(#ClipPath_5)">
<path d="M-282.154+997.359C-288.489+992.088-294.574+986.533-300.4+980.709C-335.083+946.008-360.269+901.91-371.772+852.527C-365.58+850.303-358.582+847.476-350.994+843.913C-339.42+897.191-310.54+944.013-270.527+978.188C-274.007+985.333-277.825+991.791-282.154+997.359" opacity="1" fill="url(#RadialGradient_5)"/>
</g>
</g>
<g opacity="1" vectornator:mask="#Mask_6">
<clipPath id="ClipPath_6">
<use xlink:href="#Mask_6" fill="none" overflow="visible"/>
</clipPath>
<g clip-path="url(#ClipPath_6)">
<path d="M-359.478+743.635C-364.628+743.635-369.564+743.311-374.265+742.588C-364.232+688.374-337.852+639.939-300.4+602.467C-297.535+599.604-294.604+596.804-291.612+594.072C-286.65+598.385-280.769+603.112-273.96+607.987C-313.206+642.785-341.213+689.968-351.856+743.416C-354.443+743.559-356.987+743.635-359.478+743.635" opacity="1" fill="url(#RadialGradient_6)"/>
</g>
</g>
<g opacity="1" vectornator:mask="#Mask_7">
<clipPath id="ClipPath_7">
<use xlink:href="#Mask_7" fill="none" overflow="visible"/>
</clipPath>
<g clip-path="url(#ClipPath_7)">
<path d="M-273.96+607.987C-280.769+603.112-286.65+598.385-291.612+594.072C-264.546+569.351-232.423+550.128-196.949+538.143C-194.481+544.754-190.991+551.395-186.73+558.109C-219.314+568.632-248.929+585.792-273.96+607.987" opacity="1" fill="url(#RadialGradient_7)"/>
</g>
</g>
<g opacity="1" vectornator:mask="#Mask_8">
<clipPath id="ClipPath_8">
<use xlink:href="#Mask_8" fill="none" overflow="visible"/>
</clipPath>
<g clip-path="url(#ClipPath_8)">
<path d="M51.8823+608.414C26.893+586.139-2.67589+568.902-35.2471+558.297C-34.4868+549.952-33.3827+542.486-32.172+536.021C3.65367+547.096+36.2559+565.504+63.9145+589.497C59.4684+594.972+55.5129+601.344+51.8823+608.414" opacity="1" fill="url(#RadialGradient_8)"/>
</g>
</g>
<g opacity="1" vectornator:mask="#Mask_9">
<clipPath id="ClipPath_9">
<use xlink:href="#Mask_9" fill="none" overflow="visible"/>
</clipPath>
<g clip-path="url(#ClipPath_9)">
<path d="M151.73+840.418C147.056+839.704+142.152+839.383+137.031+839.383C134.513+839.383+131.945+839.461+129.328+839.607C132.409+824.081+134.025+808.025+134.025+791.594C134.025+773.584+132.081+756.016+128.398+739.11C135.98+735.543+142.978+732.715+149.166+730.486C153.75+750.106+156.172+770.558+156.174+791.591C156.172+808.27+154.648+824.594+151.73+840.418" opacity="1" fill="url(#RadialGradient_9)"/>
</g>
</g>
<g opacity="1" vectornator:mask="#Mask_10">
<clipPath id="ClipPath_10">
<use xlink:href="#Mask_10" fill="none" overflow="visible"/>
</clipPath>
<g clip-path="url(#ClipPath_10)">
<path d="M-20.2705+1043.17C-22.8778+1036.62-26.5057+1030.05-30.9061+1023.43C1.41713+1012.23+30.6585+994.46+55.246+971.717C62.1552+976.449+68.1316+981.046+73.1858+985.252C46.6192+1010.56+14.8878+1030.46-20.2705+1043.17" opacity="1" fill="url(#RadialGradient_10)"/>
</g>
</g>
<g opacity="1" vectornator:mask="#Mask_11">
<clipPath id="ClipPath_11">
<use xlink:href="#Mask_11" fill="none" overflow="visible"/>
</clipPath>
<g clip-path="url(#ClipPath_11)">
<path d="M-184.963+1048.78C-221.061+1038.45-254.03+1020.74-282.154+997.359C-277.825+991.791-274.007+985.333-270.527+978.188C-245.101+999.907-215.186+1016.53-182.362+1026.44C-182.946+1034.8-183.89+1042.29-184.963+1048.78" opacity="1" fill="url(#RadialGradient_11)"/>
</g>
</g>
<g opacity="1" vectornator:mask="#Mask_12">
<clipPath id="ClipPath_12">
<use xlink:href="#Mask_12" fill="none" overflow="visible"/>
</clipPath>
<g clip-path="url(#ClipPath_12)">
<path d="M-371.772+852.527C-376.33+832.958-378.739+812.56-378.74+791.591C-378.739+774.848-377.204+758.47-374.265+742.588C-369.564+743.311-364.628+743.635-359.478+743.635C-356.987+743.635-354.443+743.559-351.856+743.416C-354.958+758.993-356.585+775.106-356.585+791.594L-356.585+791.594L-356.585+791.594L-356.585+791.594C-356.585+809.546-354.654+827.057-350.994+843.913C-358.582+847.476-365.58+850.303-371.772+852.527" opacity="1" fill="url(#RadialGradient_12)"/>
</g>
</g>
<g opacity="1" vectornator:mask="#Mask_13">
<clipPath id="ClipPath_13">
<use xlink:href="#Mask_13" fill="none" overflow="visible"/>
</clipPath>
<g clip-path="url(#ClipPath_13)">
<path d="M-111.279+1036.9C-111.543+1036.9-111.808+1036.9-112.073+1036.9L-111.277+1036.9L-111.277+1036.9L-111.277+1036.9L-110.483+1036.9C-110.749+1036.9-111.014+1036.9-111.279+1036.9" opacity="1" fill="url(#RadialGradient_13)"/>
</g>
</g>
<g opacity="1" vectornator:mask="#Mask_14">
<clipPath id="ClipPath_14">
<use xlink:href="#Mask_14" fill="none" overflow="visible"/>
</clipPath>
<g clip-path="url(#ClipPath_14)">
<path d="M55.246+971.717L55.2446+971.717C80.3728+948.475+100.634+920.029+114.31+888.105C100.634+920.029+80.3728+948.475+55.246+971.717" opacity="1" fill="url(#RadialGradient_14)"/>
</g>
</g>
<g opacity="1" vectornator:mask="#Mask_15">
<clipPath id="ClipPath_15">
<use xlink:href="#Mask_15" fill="none" overflow="visible"/>
</clipPath>
<g clip-path="url(#ClipPath_15)">
<path d="M-110.483+1036.9L-111.277+1036.9C-83.1307+1036.9-56.0841+1032.15-30.9061+1023.43L-30.9061+1023.43C-55.8468+1032.07-82.6211+1036.81-110.483+1036.9" opacity="1" fill="url(#RadialGradient_15)"/>
</g>
</g>
<g opacity="1" vectornator:mask="#Mask_16">
<clipPath id="ClipPath_16">
<use xlink:href="#Mask_16" fill="none" overflow="visible"/>
</clipPath>
<g clip-path="url(#ClipPath_16)">
<path d="M-30.9061+1023.43L-30.9061+1023.43C1.41711+1012.23+30.6571+994.46+55.2446+971.717L55.246+971.717C30.6584+994.46+1.41712+1012.23-30.9061+1023.43" opacity="1" fill="url(#RadialGradient_16)"/>
</g>
</g>
<g opacity="1" vectornator:mask="#Mask_17">
<clipPath id="ClipPath_17">
<use xlink:href="#Mask_17" fill="none" overflow="visible"/>
</clipPath>
<g clip-path="url(#ClipPath_17)">
<path d="M-111.277+1036.9L-112.073+1036.9C-136.507+1036.82-160.106+1033.17-182.362+1026.44L-182.362+1026.44C-159.865+1033.25-135.994+1036.9-111.277+1036.9" opacity="1" fill="url(#RadialGradient_17)"/>
</g>
</g>
<g opacity="1" vectornator:mask="#Mask_18">
<clipPath id="ClipPath_18">
<use xlink:href="#Mask_18" fill="none" overflow="visible"/>
</clipPath>
<g clip-path="url(#ClipPath_18)">
<path d="M-270.527+978.188C-310.54+944.013-339.42+897.191-350.994+843.913L-350.994+843.913C-339.42+897.191-310.54+944.013-270.527+978.188L-270.527+978.188" opacity="1" fill="url(#RadialGradient_18)"/>
</g>
</g>
<g opacity="1" vectornator:mask="#Mask_19">
<clipPath id="ClipPath_19">
<use xlink:href="#Mask_19" fill="none" overflow="visible"/>
</clipPath>
<g clip-path="url(#ClipPath_19)">
<path d="M-182.362+1026.44C-215.186+1016.53-245.101+999.907-270.527+978.188L-270.527+978.188C-245.101+999.907-215.186+1016.52-182.362+1026.44L-182.362+1026.44" opacity="1" fill="url(#RadialGradient_19)"/>
</g>
</g>
<g opacity="1" vectornator:mask="#Mask_20">
<clipPath id="ClipPath_20">
<use xlink:href="#Mask_20" fill="none" overflow="visible"/>
</clipPath>
<g clip-path="url(#ClipPath_20)">
<path d="M-350.994+843.913C-354.654+827.057-356.585+809.546-356.585+791.594L-356.585+791.594L-356.585+791.594C-356.585+809.544-354.654+827.057-350.994+843.913L-350.994+843.913" opacity="1" fill="url(#RadialGradient_20)"/>
</g>
</g>
<g opacity="1" vectornator:mask="#Mask_21">
<clipPath id="ClipPath_21">
<use xlink:href="#Mask_21" fill="none" overflow="visible"/>
</clipPath>
<g clip-path="url(#ClipPath_21)">
<path d="M-181.359+556.443C-181.351+556.44-181.345+556.439-181.337+556.436C-181.345+556.439-181.351+556.44-181.359+556.443M-181.125+556.373C-181.072+556.358-181.028+556.344-180.974+556.328C-181.028+556.344-181.072+556.358-181.125+556.373M-180.83+556.285C-180.754+556.264-180.688+556.243-180.613+556.222C-180.688+556.243-180.754+556.264-180.83+556.285M-179.794+555.983C-158.049+549.67-135.06+546.286-111.279+546.286L-111.279+546.286L-111.279+546.286C-135.06+546.286-158.049+549.67-179.794+555.983" opacity="1" fill="url(#RadialGradient_21)"/>
</g>
</g>
<g opacity="1" vectornator:mask="#Mask_22">
<clipPath id="ClipPath_22">
<use xlink:href="#Mask_22" fill="none" overflow="visible"/>
</clipPath>
<g clip-path="url(#ClipPath_22)">
<use opacity="1" xlink:href="#(null)" transform="matrix(0.680822 0 0 -0.679472 -566.689 -239.724)"/>
</g>
</g>
<g opacity="1" vectornator:mask="#Mask_23">
<clipPath id="ClipPath_23">
<use xlink:href="#Mask_23" fill="none" overflow="visible"/>
</clipPath>
<g clip-path="url(#ClipPath_23)">
<use opacity="1" xlink:href="#(null)" transform="matrix(0.647521 0 0 -0.647393 -715.933 -494.555)"/>
</g>
</g>
<g opacity="1" vectornator:mask="#Mask_24">
<clipPath id="ClipPath_24">
<use xlink:href="#Mask_24" fill="none" overflow="visible"/>
</clipPath>
<g clip-path="url(#ClipPath_24)">
<use opacity="1" xlink:href="#(null)" transform="matrix(0.647762 0 0 -0.647487 -716.324 -494.2)"/>
</g>
</g>
<g opacity="1" vectornator:mask="#Mask_25">
<clipPath id="ClipPath_25">
<use xlink:href="#Mask_25" fill="none" overflow="visible"/>
</clipPath>
<g clip-path="url(#ClipPath_25)">
<use opacity="1" xlink:href="#(null)" transform="matrix(0.647445 0 0 -0.647876 -716.495 -492.71)"/>
</g>
</g>
<g opacity="1" vectornator:mask="#Mask_26">
<clipPath id="ClipPath_26">
<use xlink:href="#Mask_26" fill="none" overflow="visible"/>
</clipPath>
<g clip-path="url(#ClipPath_26)">
<use opacity="1" xlink:href="#(null)" transform="matrix(0.64795 0 0 -0.647676 -715.919 -493.906)"/>
</g>
</g>
<g opacity="1" vectornator:mask="#Mask_27">
<clipPath id="ClipPath_27">
<use xlink:href="#Mask_27" fill="none" overflow="visible"/>
</clipPath>
<g clip-path="url(#ClipPath_27)">
<use opacity="1" xlink:href="#(null)" transform="matrix(0.647762 0 0 -0.647481 -716.966 -493.867)"/>
</g>
</g>
<g opacity="1" vectornator:mask="#Mask_28">
<clipPath id="ClipPath_28">
<use xlink:href="#Mask_28" fill="none" overflow="visible"/>
</clipPath>
<g clip-path="url(#ClipPath_28)">
<use opacity="1" xlink:href="#(null)" transform="matrix(0.647511 0 0 -0.647863 -717.047 -493.43)"/>
</g>
</g>
<g opacity="1" vectornator:mask="#Mask_29">
<clipPath id="ClipPath_29">
<use xlink:href="#Mask_29" fill="none" overflow="visible"/>
</clipPath>
<g clip-path="url(#ClipPath_29)">
<use opacity="1" xlink:href="#(null)" transform="matrix(0.64744 0 0 -0.647852 -716.597 -494.381)"/>
</g>
</g>
<g opacity="1" vectornator:mask="#Mask_30">
<clipPath id="ClipPath_30">
<use xlink:href="#Mask_30" fill="none" overflow="visible"/>
</clipPath>
<g clip-path="url(#ClipPath_30)">
<use opacity="1" xlink:href="#(null)" transform="matrix(0.647746 0 0 -0.647753 -715.573 -494.487)"/>
</g>
</g>
<g opacity="1" vectornator:mask="#Mask_31">
<clipPath id="ClipPath_31">
<use xlink:href="#Mask_31" fill="none" overflow="visible"/>
</clipPath>
<g clip-path="url(#ClipPath_31)">
<use opacity="1" xlink:href="#(null)" transform="matrix(0.647676 0 0 -0.647941 -716.363 -490.941)"/>
</g>
</g>
<g opacity="1" vectornator:mask="#Mask_32">
<clipPath id="ClipPath_32">
<use xlink:href="#Mask_32" fill="none" overflow="visible"/>
</clipPath>
<g clip-path="url(#ClipPath_32)">
<use opacity="1" xlink:href="#(null)" transform="matrix(0.647277 0 0 -0.64756 -716.221 -493.698)"/>
</g>
</g>
<g opacity="1" vectornator:mask="#Mask_33">
<clipPath id="ClipPath_33">
<use xlink:href="#Mask_33" fill="none" overflow="visible"/>
</clipPath>
<g clip-path="url(#ClipPath_33)">
<use opacity="1" xlink:href="#(null)" transform="matrix(0.647653 0 0 -0.647467 -716.155 -493.902)"/>
</g>
</g>
<g opacity="1" vectornator:mask="#Mask_34">
<clipPath id="ClipPath_34">
<use xlink:href="#Mask_34" fill="none" overflow="visible"/>
</clipPath>
<g clip-path="url(#ClipPath_34)">
<use opacity="1" xlink:href="#(null)" transform="matrix(0.647676 0 0 -0.647386 -717.005 -491.075)"/>
</g>
</g>
<path d="M19.3411+18.6571C11.8578+26.1443+7.23535+36.4637+7.23453+47.8841C7.23536+59.3033+11.8578+69.6246+19.3411+77.1103C26.8272+84.5939+37.1475+89.2149+48.5676+89.217C59.9869+89.2149+70.3068+84.5939+77.7939+77.1103C85.2764+69.6246+89.898+59.3033+89.8989+47.8841C89.898+36.4637+85.2764+26.1443+77.7939+18.6571C70.3068+11.175+59.9869+6.55228+48.5676+6.55145C37.1475+6.55228+26.8272+11.175+19.3411+18.6571M3.0669+47.8841C3.06878+22.755+23.4381+2.38586+48.5676+2.38378C73.6963+2.38586+94.0652+22.755+94.0669+47.8841C94.0652+73.0143+73.6963+93.3838+48.5676+93.3838C23.4381+93.3838+3.06877+73.0143+3.0669+47.8841" opacity="1" fill="#100f0d"/>
<path d="M68.4405+57.4949C68.2453+56.943+67.7201+55.6961+66.4486+54.6465C65.2162+53.6293+63.9391+53.3391+63.362+53.2441C63.7958+53.645+64.3343+54.2446+64.7666+55.0788C64.9408+55.4148+65.0704+55.7361+65.1679+56.029C60.6017+58.2387+56.5404+59.4825+53.5128+60.2138C49.691+61.1367+45.055+62.2138+39.0686+61.6034C36.3152+61.3221+34.0597+60.7638+32.4855+60.2909C32.6565+59.9554+32.8924+59.5679+33.2176+59.17C33.8249+58.4262+34.4899+57.9637+34.971+57.6866C34.5476+57.7449+32.9728+58.0116+31.9117+59.3679C30.735+60.8721+30.6681+63.1055+31.7707+64.9702C31.6853+64.3973+31.6386+63.5972+31.8203+62.6743C31.9051+62.243+32.0244+61.8638+32.1494+61.543C34.4349+68.9099+40.2184+74.1414+46.6888+74.6935C52.674+75.206+57.2964+71.5455+57.976+70.9913C61.3253+68.2599+62.9362+64.6035+64.3781+61.3076C65.2023+59.4262+65.7309+57.7803+66.0673+56.5824C66.2936+56.6101+66.5417+56.6553+66.8053+56.7272C67.5086+56.9186+68.0557+57.2262+68.4405+57.4949" opacity="1" fill="#100f0d"/>
<path d="M34.1757+61.9263C35.2235+67.387+39.0488+71.7934+44.0565+73.1976C50.7396+75.0706+56.2797+70.6808+57.3443+69.785C59.3354+68.1099+60.5642+66.1265+61.127+65.2035C62.7583+62.5284+63.4677+60.0117+63.8035+58.3449C60.8697+59.8283+58.3225+60.745+56.5152+61.3096C52.8825+62.443+46.0788+64.4848+37.99+62.9201C36.3354+62.5993+35.0116+62.2034+34.1757+61.9263" opacity="1" fill="#5e1718"/>
<path d="M62.9939+61.268C62.5703+62.4701+61.9747+63.816+61.1263+65.2015C60.5649+66.1286+59.3373+68.1078+57.3444+69.785C56.3231+70.6454+51.1733+74.7268+44.8517+73.3914C44.8779+72.0538+45.1367+70.3412+46.0246+68.5745C46.832+66.9703+47.8816+65.8786+48.6445+65.214L62.9939+61.268" opacity="1" fill="#cf505c"/>
<path d="M46.939+67.0786C47.0672+67.9995+47.1507+68.9849+47.167+70.0225C47.1872+71.3184+47.0986+72.533+46.9436+73.6476C46.2646+73.6226+45.5652+73.5414+44.8517+73.3914C44.8779+72.0538+45.1369+70.3413+46.0246+68.5745C46.3069+68.012+46.6167+67.5141+46.939+67.0786" opacity="1" fill="#de5e70"/>
<path d="M63.8043+58.347C63.5787+59.4658+63.1845+60.9659+62.4541+62.6409C55.7393+65.6931+50.1373+66.6078+46.5507+66.9078C41.8578+67.3036+39.5676+66.7286+37.8627+65.2952C36.8442+64.4368+36.1785+63.3951+35.7408+62.3972C36.3896+62.5743+37.1454+62.7555+37.9871+62.918C46.0778+64.4869+52.8823+62.4451+56.5135+61.3117C58.321+60.743+60.8699+59.8304+63.8043+58.347" opacity="1" fill="#ffffff"/>
<path d="M43.9319+67.0307C42.7766+67.0307+41.8112+66.9411+40.9834+66.7661C41.8118+66.9411+42.7781+67.0307+43.9342+67.0307C44.3731+67.0307+44.8392+67.0161+45.3354+66.9911C44.8384+67.0161+44.3713+67.0307+43.9319+67.0307" opacity="1" fill="#4d1617"/>
<path d="M43.9342+67.0307C42.7781+67.0307+41.8118+66.9411+40.9834+66.7661C40.1597+66.5932+39.4726+66.3348+38.8709+65.9932C39.6315+66.1932+40.4891+66.3598+41.4287+66.4765C42.2291+66.5744+43.0198+66.6244+43.8306+66.6244C45.3509+66.6244+46.9422+66.4494+48.8043+66.0911C53.888+65.1056+59.3644+63.0535+62.8703+61.6055C62.7466+61.9409+62.6064+62.2868+62.4541+62.6409L62.4541+62.6409C56.0728+65.5411+50.6964+66.5119+47.0999+66.8578C46.912+66.8765+46.729+66.8932+46.5507+66.9078L46.5507+66.9078C46.1265+66.9432+45.7219+66.9703+45.3354+66.9911C44.8392+67.0161+44.3731+67.0307+43.9342+67.0307" opacity="1" fill="#dbdad8"/>
<path d="M46.4888+30.6857C51.9902+29.27+56.6291+28.1954+60.1603+27.4169C63.5652+26.666+60.8451+27.3139+69.7997+25.5491C71.291+25.2551+73.559+24.8049+76.6283+24.6957C77.8206+24.6532+78.8131+24.6736+79.5013+24.7005C80.2519+24.7192+82.0849+24.8242+82.3182+25.5587C82.3593+25.6874+82.4007+25.9918+82.4668+26.4772C82.5103+26.7981+82.5397+27.0637+82.558+27.2443C82.6251+28.4898+82.653+30.1993+82.4857+32.2189C82.3013+34.4455+82.0449+37.5418+80.614+40.9957C79.7298+43.13+78.4975+46.1047+75.4166+48.5789C71.7758+51.5028+67.7813+51.9224+66.1502+51.9895C63.8662+52.0832+62.2041+51.6368+61.8486+51.5378C59.2123+50.8034+57.4144+49.3983+56.476+48.5433C56.1099+48.1823+55.7312+47.7833+55.348+47.3445C54.9241+46.8593+54.5474+46.3855+54.2134+45.9338C53.7205+45.2119+53.2307+44.4188+52.7634+43.5517C51.1433+40.5442+50.3404+37.6606+49.9325+35.3257C49.7806+35.2392+49.5637+35.1313+49.2897+35.0449C48.8739+34.9136+48.5387+34.8988+48.2687+34.8886C47.9772+34.8778+47.5743+34.8888+47.1003+34.984C46.8963+33.5513+46.6926+32.1185+46.4888+30.6857" opacity="1" fill="#469ddc"/>
<path d="M46.5065+30.6832C40.8284+30.858+36.0741+31.1199+32.4657+31.357C28.9866+31.5858+31.7794+31.4491+22.6879+32.2518C21.1737+32.3854+18.8703+32.5858+15.8923+33.3369C14.7354+33.6286+13.7881+33.925+13.1347+34.1427C12.4191+34.37+10.688+34.9821+10.6688+35.7526C10.6653+35.8876+10.7105+36.1914+10.7823+36.676C10.8298+36.9964+10.8759+37.2595+10.9086+37.4383C11.1917+38.6529+11.6415+40.3024+12.3655+42.1953C13.1635+44.2821+14.2735+47.1841+16.6108+50.1017C18.0551+51.9047+20.0682+54.4177+23.7169+55.9344C28.0285+57.7262+31.9815+57.0157+33.5668+56.6253C35.7862+56.0784+37.2579+55.1859+37.5717+54.9917C39.8984+53.5512+41.2335+51.7005+41.896+50.6178C42.1468+50.1688+42.3993+49.68+42.645+49.1519C42.9166+48.5675+43.1462+48.0075+43.341+47.4808C43.6131+46.6499+43.8623+45.7517+44.069+44.7886C44.7863+41.4487+44.7529+38.4556+44.4936+36.0995C44.6152+35.9741+44.7936+35.8099+45.0325+35.6505C45.395+35.4086+45.713+35.3007+45.9694+35.2159C46.2463+35.124+46.6363+35.0224+47.118+34.9815C46.9142+33.5488+46.7103+32.116+46.5065+30.6832" opacity="1" fill="#469ddc"/>
<path d="M52.2707+35.6845C52.2384+35.5503+52.1963+35.3615+52.1567+35.1334C52.1269+34.9611+52.0994+34.8023+52.085+34.6294C52.0611+34.3409+52.0321+33.9906+52.16+33.6613C52.219+33.5098+52.3094+33.3671+52.6619+33.0344C53.2644+32.4654+53.7547+32.1579+53.7547+32.1579C54.6407+31.602+55.4343+31.3178+55.5276+31.2851C61.2832+29.2611+65.2452+28.6792+65.2452+28.6792C68.3084+28.2292+72.4838+27.7996+77.5666+27.8008C77.8704+27.7946+78.3531+27.8225+78.8937+28.0317C79.1844+28.1442+79.4219+28.2358+79.6456+28.4565C79.7433+28.5529+79.97+28.8038+80.2157+29.9711C80.2754+30.2549+80.3467+30.642+80.4011+31.1091C80.3942+34.8757+79.4313+37.7087+78.715+39.3629C77.8172+41.4362+75.5924+46.5741+70.1637+48.7116C67.2526+49.8579+64.5656+49.6906+63.0372+49.4656C62.4414+49.341+61.5838+49.1119+60.6238+48.6625C57.8979+47.386+56.4141+45.3021+55.5103+44C54.2213+42.1424+53.6194+40.4619+53.2094+39.2921C52.7092+37.8643+52.4323+36.6141+52.2707+35.6845" opacity="1" fill="#100f0d"/>
<path d="M80.4004+31.1101C80.3942+34.8755+79.4302+37.7104+78.7152+39.3638C77.8183+41.4347+75.5936+46.5736+70.1645+48.7106C67.2526+49.8569+64.5652+49.6917+63.0383+49.4665C62.6026+49.3752+62.0255+49.2275+61.372+48.98C64.8823+49.3685+67.8742+48.8635+69.7224+47.9366C71.3266+47.1297+72.7306+45.9115+72.7306+45.9115C73.5969+45.1613+74.2007+44.4598+74.5409+44.0398C74.8278+43.6842+75.7568+42.4966+76.8262+40.0438C77.4662+38.5798+78.4806+36.2001+78.8046+33.0137C78.9904+31.1887+78.8421+30.1261+78.6985+29.4373C78.5702+28.8344+78.4006+28.2996+78.2229+27.8483C78.4289+27.8814+78.6558+27.94+78.8929+28.031C79.184+28.1427+79.4215+28.2367+79.6456+28.4573C79.7446+28.5538+79.97+28.8025+80.2157+29.9705C80.2759+30.254+80.3477+30.6409+80.4004+31.1101" opacity="1" fill="#ffffff"/>
<path d="M54.923+40.6195C54.8259+39.9769+54.7445+38.8611+55.128+37.5741C55.1991+37.3358+55.4608+36.5047+56.1458+35.5055C56.8908+34.4188+57.8367+33.57+59.3671+32.6004C60.6926+31.7606+62.7774+30.627+65.6467+29.7567C64.5706+29.9736+60.7976+30.7436+57.8642+31.5495C57.3714+31.6849+56.6341+31.8949+55.7289+32.3262C54.4968+32.9129+53.6003+33.6015+53.0469+34.0788C53.1867+35.2772+53.4565+36.6999+53.9713+38.2498C54.2634+39.1296+54.5914+39.9205+54.923+40.6195" opacity="1" fill="#ffffff"/>
<path d="M42.3481+37.0962C42.3418+36.9583+42.3295+36.7651+42.3037+36.5351C42.2843+36.3614+42.2666+36.2012+42.232+36.0311C42.1745+35.7476+42.1047+35.403+41.8899+35.1226C41.7912+34.9934+41.6645+34.8817+41.2332+34.6605C40.4959+34.2821+39.9395+34.1234+39.9395+34.1234C38.9336+33.8367+38.0921+33.7852+37.9934+33.7798C31.9017+33.4415+27.9347+33.9875+27.9347+33.9875C24.8675+34.4096+20.7381+35.1617+15.8573+36.5805C15.5637+36.6593+15.1079+36.8208+14.6472+37.1722C14.3993+37.3614+14.1968+37.5158+14.0437+37.79C13.9766+37.91+13.8289+38.2139+13.9185+39.4036C13.9403+39.6925+13.9799+40.0844+14.0576+40.548C15.115+44.1633+16.8298+46.6153+17.979+48.0041C19.4195+49.7446+22.989+54.0581+28.7983+54.5969C31.9136+54.8858+34.4472+53.9756+35.8525+53.3333C36.3898+53.0477+37.1494+52.5883+37.9459+51.8889C40.2078+49.9027+41.0514+47.4878+41.5562+45.9853C42.276+43.8421+42.3854+42.0601+42.4527+40.8224C42.5349+39.3119+42.4522+38.0339+42.3481+37.0962" opacity="1" fill="#100f0d"/>
<path d="M14.0589+40.5488C15.1148+44.1629+16.8313+46.6166+17.979+48.005C19.4178+49.7436+22.9877+54.0581+28.7972+54.596C31.9134+54.8846+34.448+53.9766+35.8516+53.3343C36.2446+53.1252+36.7575+52.8224+37.316+52.4026C34.0532+53.7548+31.0392+54.1041+29.006+53.7296C27.2403+53.402+25.5524+52.6239+25.5524+52.6239C24.5111+52.1451+23.7356+51.6397+23.2919+51.3313C22.9171+51.0697+21.6939+50.1884+19.9828+48.1312C18.9599+46.9037+17.3219+44.9015+16.1221+41.9318C15.4348+40.2311+15.281+39.1692+15.2264+38.4677C15.1816+37.8529+15.1954+37.292+15.2402+36.8091C15.0514+36.8985+14.85+37.0179+14.6479+37.1714C14.3993+37.3599+14.1976+37.5164+14.0437+37.7908C13.9758+37.911+13.8287+38.2127+13.9185+39.4027C13.9397+39.6919+13.9785+40.0836+14.0589+40.5488" opacity="1" fill="#ffffff"/>
<path d="M41.1774+42.5752C41.0914+41.931+40.8584+40.8368+40.1311+39.7077C39.9965+39.4988+39.5132+38.7738+38.5769+38.0052C37.5583+37.1693+36.4133+36.618+34.6733+36.1139C33.1659+35.677+30.8477+35.1697+27.8497+35.1342C28.9435+35.0424+32.7815+34.7296+35.8233+34.6855C36.3343+34.678+37.101+34.674+38.0904+34.8357C39.4374+35.0555+40.4903+35.4667+41.1549+35.7707C41.3549+36.9606+41.4924+38.4021+41.4305+40.034C41.3953+40.9605+41.301+41.8114+41.1774+42.5752" opacity="1" fill="#ffffff"/>
</g>
</g>
</svg>
